<svg width="150" height="29" viewBox="0 0 150 29" fill="none" xmlns="http://www.w3.org/2000/svg">
<path d="M21.6887 10.0148V19.1565L21.1212 19.7241L16.5402 24.2848L13.6821 27.1429C12.3849 28.3793 10.3376 28.3185 9.10116 27.0212C7.90524 25.7645 7.90524 23.8186 9.10116 22.5619L11.9592 19.7038L16.5402 15.1431L17.1078 14.5756L21.6887 10.0148ZM82.4983 9.22431C84.1199 9.22431 85.3969 9.73106 86.309 10.7446C87.2212 11.758 87.7279 13.1972 87.809 15.062C87.8293 15.2445 87.8293 15.4877 87.8293 15.7917V15.9944C87.8293 16.3998 87.8293 16.7039 87.809 16.9471C87.7482 18.7511 87.2414 20.17 86.309 21.2038C85.3766 22.2376 84.0996 22.7646 82.4983 22.7646C80.8767 22.7646 79.6605 22.2173 78.87 21.1024V26.6361C78.8903 26.9807 78.6065 27.2442 78.2822 27.2645C78.2619 27.2645 78.2619 27.2645 78.2416 27.2645H74.9984C74.8363 27.2645 74.6539 27.2037 74.5322 27.0821C74.4106 26.9604 74.3295 26.7983 74.3498 26.6361V10.0959C74.3498 9.93376 74.4106 9.75133 74.5322 9.64998C74.6539 9.52836 74.816 9.46755 74.9984 9.46755H77.9781C78.3227 9.44728 78.5862 9.73106 78.6065 10.0554C78.6065 10.0756 78.6065 10.0756 78.6065 10.0959V11.0081C79.4984 9.81214 80.7956 9.22431 82.4983 9.22431ZM34.1142 4.72441C35.4317 4.68387 36.729 4.94737 37.9452 5.49466C38.9181 5.92033 39.7694 6.56896 40.4181 7.40003C41.0059 8.17028 41.31 8.9 41.3302 9.64998C41.3302 9.79187 41.2694 9.93376 41.1883 10.0351C41.087 10.1365 40.9654 10.1973 40.8032 10.1973H37.2965C36.9519 10.2175 36.6276 10.0351 36.4452 9.75133C36.3033 9.3662 36.0398 9.04189 35.6749 8.85946C35.1885 8.59595 34.6614 8.47433 34.1142 8.4946C33.4047 8.4946 32.8777 8.61622 32.4926 8.87973C32.1074 9.12297 31.9047 9.52836 31.925 9.9743C31.925 10.4608 32.1683 10.8459 32.675 11.1094C33.1817 11.3932 34.1142 11.6567 35.4722 11.9405C37.0533 12.2242 38.2897 12.5688 39.2222 12.9945C40.0532 13.3391 40.7627 13.9067 41.2694 14.6566C41.7154 15.3255 41.9383 16.1971 41.9383 17.2309C41.9586 18.3052 41.614 19.339 40.9654 20.1903C40.2559 21.0619 39.3235 21.7308 38.2492 22.1159C36.9722 22.5821 35.6344 22.8051 34.2966 22.7848C32.675 22.7848 31.2966 22.5416 30.1615 22.0754C29.0264 21.6092 28.1751 20.9808 27.5873 20.2106C27.0197 19.5011 26.6954 18.6093 26.6549 17.7174C26.6549 17.5755 26.7157 17.4336 26.817 17.3323C26.9184 17.2309 27.0602 17.1701 27.2021 17.1904H30.5264C30.6886 17.1904 30.871 17.2106 31.0129 17.2917C31.175 17.3931 31.2966 17.4944 31.4183 17.6363C31.6615 18.062 32.0061 18.4066 32.4318 18.6295C32.9993 18.9133 33.6277 19.0552 34.2763 19.0147C35.1885 19.0147 35.8776 18.8728 36.3641 18.6093C36.8506 18.3457 37.0938 17.9606 37.0938 17.4741C37.0938 17.1498 36.9722 16.8255 36.7087 16.6025C36.3438 16.3188 35.9384 16.1161 35.5128 15.9944C34.9655 15.812 34.175 15.6296 33.1412 15.4066C31.1142 15.0012 29.594 14.3931 28.6008 13.5823C27.6075 12.7715 27.1008 11.5959 27.1008 10.0756C27.0805 9.08243 27.3846 8.10947 27.9724 7.29868C28.6008 6.44734 29.4521 5.79871 30.425 5.41358C31.6007 4.92711 32.8574 4.68387 34.1142 4.72441ZM128.105 9.22431C129.545 9.22431 130.761 9.50809 131.754 10.0959C132.727 10.6432 133.497 11.4743 133.984 12.4878C134.49 13.5621 134.734 14.7377 134.713 15.9336V16.562C134.713 16.9066 134.45 17.2106 134.085 17.2106C134.065 17.2106 134.065 17.2106 134.045 17.2106H126.099V17.3525C126.078 18.0012 126.261 18.6295 126.626 19.1768C126.95 19.6227 127.477 19.8863 128.045 19.866C128.389 19.8863 128.714 19.8052 129.018 19.6227C129.281 19.4606 129.504 19.2579 129.707 19.0147C129.808 18.893 129.93 18.7917 130.072 18.7106C130.214 18.6701 130.355 18.6295 130.518 18.6498H133.801C133.943 18.6498 134.085 18.6903 134.186 18.7917C134.288 18.8728 134.349 18.9944 134.349 19.1363C134.349 19.5619 134.105 20.0889 133.619 20.6565C133.031 21.3051 132.281 21.8322 131.47 22.1565C130.416 22.6024 129.281 22.8051 128.126 22.7848C126.078 22.7848 124.477 22.2376 123.301 21.143C122.126 20.0484 121.538 18.4674 121.497 16.3796V15.6093C121.558 13.6229 122.187 12.0621 123.362 10.9472C124.538 9.83241 126.099 9.22431 128.105 9.22431ZM149.348 4.72441C149.51 4.72441 149.693 4.78522 149.814 4.90684C149.936 5.02846 150.017 5.19061 149.997 5.35277V21.893C149.997 22.0551 149.936 22.2376 149.814 22.3389C149.693 22.4605 149.531 22.5213 149.348 22.5213H146.348C146.004 22.5213 145.72 22.2376 145.72 21.893V21.1227C144.828 22.2173 143.531 22.7646 141.828 22.7848C140.207 22.7848 138.93 22.2781 137.997 21.2646C137.065 20.2511 136.578 18.7917 136.517 16.9066L136.497 16.035L136.517 15.1228C136.578 13.2986 137.085 11.8594 138.017 10.8256C138.95 9.79187 140.227 9.26485 141.828 9.26485C143.328 9.26485 144.544 9.75133 145.456 10.7243V5.39331C145.456 5.23115 145.517 5.06899 145.639 4.94737C145.76 4.82575 145.923 4.76495 146.085 4.76495L149.348 4.72441ZM47.8368 9.46755C47.999 9.46755 48.1814 9.52836 48.3031 9.64998C48.4247 9.7716 48.5058 9.93376 48.4855 10.0959V21.8727C48.4855 22.0349 48.4247 22.197 48.3031 22.3186C48.1814 22.4403 48.0193 22.5011 47.8368 22.5011H44.695C44.3504 22.5011 44.0667 22.2173 44.0667 21.8727V10.0959C44.0667 9.93376 44.1275 9.75133 44.2491 9.64998C44.3707 9.52836 44.5329 9.46755 44.695 9.46755H47.8368ZM66.9716 9.22431C68.3499 9.22431 69.4648 9.69052 70.3161 10.6229C71.1674 11.5553 71.6134 12.9337 71.6134 14.7782V21.893C71.6134 22.0551 71.5526 22.2173 71.4309 22.3389C71.3093 22.4605 71.1472 22.5213 70.985 22.5213H67.904C67.7418 22.5213 67.5594 22.4605 67.4378 22.3389C67.3162 22.2173 67.2554 22.0551 67.2554 21.893V14.9607C67.2554 14.1904 67.0932 13.6229 66.7689 13.2783C66.4243 12.9134 65.9581 12.7107 65.4513 12.731C64.9649 12.7107 64.4987 12.9134 64.1946 13.2783C63.8703 13.6431 63.7081 14.2107 63.7081 14.9607V21.893C63.7081 22.0551 63.6473 22.2173 63.5257 22.3389C63.4041 22.4605 63.2419 22.5213 63.0798 22.5213H59.9988C59.8366 22.5213 59.6542 22.4605 59.5326 22.3389C59.4109 22.2173 59.3298 22.0551 59.3501 21.893V14.9404C59.3501 14.1702 59.188 13.6026 58.8434 13.258C58.4988 12.8932 58.0326 12.7107 57.5461 12.7107C57.0596 12.6905 56.5934 12.8932 56.2691 13.258C55.9448 13.6229 55.7624 14.1702 55.7624 14.9201V21.893C55.7624 22.0551 55.7015 22.2173 55.5799 22.3389C55.4583 22.4605 55.2962 22.5213 55.134 22.5213H51.9719C51.6273 22.5213 51.3435 22.2376 51.3435 21.893V10.1162C51.3435 9.95403 51.4043 9.7716 51.526 9.67025C51.6476 9.54863 51.8097 9.48782 51.9719 9.48782H54.8705C55.2151 9.46755 55.4786 9.75133 55.4988 10.0756C55.4988 10.0959 55.4988 10.0959 55.4988 10.1162V10.9675C55.9245 10.4608 56.4515 10.0351 57.0596 9.75133C57.7285 9.40674 58.4582 9.24458 59.2082 9.24458C61.0528 9.24458 62.3095 9.95403 62.9987 11.3932C63.4244 10.7446 63.9919 10.2175 64.6811 9.83241C65.3703 9.42701 66.1608 9.22431 66.9716 9.22431ZM94.0116 4.72441C94.3359 4.70414 94.6197 4.96764 94.6399 5.29196C94.6399 5.31223 94.6399 5.3325 94.6399 5.35277V21.893C94.6399 22.0551 94.5791 22.2173 94.4575 22.3389C94.3359 22.4605 94.1737 22.5416 94.0116 22.5213H90.8697C90.7076 22.5213 90.5251 22.4605 90.4035 22.3389C90.2819 22.2173 90.2008 22.0551 90.2211 21.893V5.35277C90.2211 5.19061 90.2819 5.00819 90.4035 4.90684C90.5251 4.78522 90.6873 4.72441 90.8697 4.72441H94.0116ZM101.248 9.46755C101.41 9.46755 101.592 9.52836 101.714 9.64998C101.836 9.7716 101.917 9.93376 101.897 10.0959V21.8727C101.897 22.0349 101.836 22.2173 101.714 22.3186C101.592 22.4403 101.43 22.5011 101.248 22.5011H98.1061C97.7615 22.5011 97.4777 22.2173 97.4777 21.8727V10.0959C97.4777 9.93376 97.5385 9.75133 97.6601 9.64998C97.7818 9.52836 97.9439 9.46755 98.1061 9.46755H101.248ZM118.518 3.97442C118.68 3.97442 118.842 4.03523 118.964 4.15685C119.085 4.27847 119.146 4.44063 119.146 4.60279V6.75139C119.146 6.91355 119.085 7.07571 118.964 7.19733C118.842 7.31895 118.68 7.40002 118.518 7.37975H112.092C111.545 7.37975 111.18 7.50138 110.957 7.74462C110.734 7.98785 110.633 8.35271 110.613 8.85946V9.48782H118.538C118.883 9.48782 119.146 9.75133 119.166 10.0756C119.166 10.0959 119.166 10.0959 119.166 10.1162V21.893C119.166 22.0551 119.106 22.2173 118.984 22.3389C118.862 22.4605 118.7 22.5416 118.538 22.5213H115.477C115.315 22.5213 115.133 22.4605 115.011 22.3389C114.89 22.2173 114.808 22.0551 114.829 21.893V12.8932H110.613V21.893C110.613 22.0551 110.552 22.2173 110.43 22.3389C110.309 22.4605 110.146 22.5416 109.984 22.5213H106.923C106.761 22.5213 106.579 22.4605 106.457 22.3389C106.336 22.2173 106.255 22.0551 106.275 21.893V12.8932H104.39C104.228 12.8932 104.045 12.8323 103.924 12.7107C103.802 12.5891 103.721 12.4269 103.741 12.2648V10.1162C103.741 9.95403 103.802 9.7716 103.924 9.67025C104.045 9.54863 104.207 9.48782 104.39 9.48782H106.275V8.73784C106.275 7.07571 106.761 5.85952 107.734 5.10953C108.707 4.35955 110.086 3.97442 111.91 3.97442H118.518ZM143.308 12.7107C142.558 12.7107 142.011 12.9337 141.686 13.3796C141.362 13.8256 141.18 14.4337 141.119 15.2242L141.098 15.9944L141.119 16.7647C141.18 17.5552 141.362 18.1633 141.686 18.6093C142.011 19.0552 142.558 19.2782 143.308 19.2782C144.017 19.2782 144.565 19.0552 144.909 18.589C145.274 18.0822 145.477 17.4741 145.477 16.8458C145.517 16.3796 145.517 16.0553 145.517 15.8931C145.517 15.7309 145.497 15.4066 145.477 14.9607C145.477 14.3729 145.254 13.8053 144.889 13.3391C144.524 12.9134 143.997 12.7107 143.308 12.7107ZM81.0389 12.7107C80.3294 12.7107 79.7821 12.9337 79.4375 13.3999C79.0727 13.9066 78.87 14.5147 78.8497 15.1431C78.8294 15.3255 78.8294 15.5688 78.8294 15.8931V16.0958C78.8294 16.5012 78.8294 16.8052 78.8497 17.0282C78.87 17.616 79.0727 18.1836 79.4375 18.6498C79.8024 19.0755 80.3294 19.2782 81.0389 19.2782C81.7888 19.2782 82.3361 19.0552 82.6604 18.6093C82.9848 18.1633 83.1672 17.5552 83.228 16.7647C83.2483 16.6025 83.2483 16.339 83.2483 15.9944C83.2483 15.6499 83.2483 15.3863 83.228 15.2242C83.1875 14.4337 82.9848 13.8256 82.6604 13.3796C82.3361 12.9337 81.7888 12.7107 81.0389 12.7107ZM20.5536 8.87973L15.9929 13.4404L15.4254 14.008L10.8646 18.5687L10.2971 19.1363H1.15538L6.30392 13.9877L10.8849 9.42701L11.4525 8.85946H20.5536V8.87973ZM7.98632 0.873137C9.28359 -0.343054 11.3308 -0.282248 12.547 1.01502C13.7227 2.25148 13.7024 4.19739 12.547 5.43385L4.54045 13.4404L0 18.0012V8.85946L0.567556 8.2919L5.12827 3.73118L7.98632 0.873137ZM128.105 12.0621C127.538 12.0216 126.991 12.2851 126.646 12.731C126.301 13.1769 126.139 13.8053 126.139 14.5958V14.6364H130.132V14.5958C130.132 13.785 129.95 13.1769 129.605 12.731C129.22 12.2851 128.673 12.0216 128.105 12.0621ZM47.8368 4.03523C48.0193 4.03523 48.1814 4.09604 48.3031 4.21766C48.4247 4.33928 48.4855 4.50144 48.4855 4.68387V7.0149C48.4855 7.19733 48.4247 7.35948 48.3031 7.4811C48.1814 7.60272 48.0193 7.66354 47.8368 7.66354H44.695C44.5329 7.66354 44.3504 7.60272 44.2491 7.4811C44.1275 7.35948 44.0667 7.19733 44.0667 7.0149V4.68387C44.0667 4.50144 44.1275 4.33928 44.2491 4.21766C44.3707 4.09604 44.5126 4.03523 44.695 4.03523H47.8368ZM101.248 4.03523C101.613 4.03523 101.897 4.31901 101.897 4.6636C101.897 4.6636 101.897 4.6636 101.897 4.68387V7.0149C101.897 7.35949 101.613 7.66354 101.268 7.66354H101.248H98.1061C97.9439 7.66354 97.7615 7.60272 97.6601 7.4811C97.5385 7.35948 97.4777 7.19733 97.4777 7.0149V4.68387C97.4777 4.50144 97.5385 4.33928 97.6601 4.21766C97.7818 4.09604 97.9236 4.03523 98.1061 4.03523H101.248Z" fill="black"/>
</svg>
