<svg width="22" height="22" viewBox="0 0 22 22" fill="none" xmlns="http://www.w3.org/2000/svg">
<g clip-path="url(#clip0_1996_571)">
<path d="M8.9375 20.0072L7.34219 15.7548L7.23047 15.457L6.93268 15.3453L2.68035 13.75L6.93268 12.1547L7.23047 12.043L7.34219 11.7452L8.9375 7.49285L10.5328 11.7452L10.6445 12.043L10.9423 12.1547L15.1947 13.75L10.9423 15.3453L10.6445 15.457L10.5328 15.7548L8.9375 20.0072Z" stroke="#585E69" stroke-width="1.4"/>
<path d="M3.78125 6.39821L3.14413 4.6566L3.08032 4.48218L2.9059 4.41837L1.16429 3.78125L2.9059 3.14413L3.08032 3.08032L3.14413 2.9059L3.78125 1.16429L4.41837 2.9059L4.48218 3.08032L4.6566 3.14413L6.39821 3.78125L4.6566 4.41837L4.48218 4.48218L4.41837 4.6566L3.78125 6.39821Z" stroke="#585E69" stroke-width="0.8"/>
<path d="M17.1875 9.6071L16.3174 7.34478L16.2376 7.13736L16.0302 7.05758L13.7679 6.1875L16.0302 5.31742L16.2376 5.23764L16.3174 5.03022L17.1875 2.7679L18.0576 5.03022L18.1374 5.23764L18.3448 5.31742L20.6071 6.1875L18.3448 7.05758L18.1374 7.13736L18.0576 7.34478L17.1875 9.6071Z" stroke="#585E69"/>
</g>
<defs>
<clipPath id="clip0_1996_571">
<rect width="22" height="22" fill="white"/>
</clipPath>
</defs>
</svg>
